<mxfile host="app.diagrams.net" modified="2024-01-24T20:11:42.794Z" agent="Mozilla/5.0 (Windows NT 10.0; Win64; x64) AppleWebKit/537.36 (KHTML, like Gecko) Chrome/120.0.0.0 Safari/537.36" etag="WpKF0SeKDgUGYl4kHb1G" version="22.1.22" type="device">
  <diagram id="dijq7EySqOm7LpBwnqDr" name="Page-1">
    <mxGraphModel dx="882" dy="578" grid="1" gridSize="10" guides="1" tooltips="1" connect="1" arrows="1" fold="1" page="1" pageScale="1" pageWidth="850" pageHeight="1100" math="0" shadow="0">
      <root>
        <mxCell id="0" />
        <mxCell id="1" parent="0" />
        <mxCell id="KRAZHz8LZVqJgj0i6Q-k-21" style="edgeStyle=orthogonalEdgeStyle;rounded=0;orthogonalLoop=1;jettySize=auto;html=1;exitX=0.75;exitY=1;exitDx=0;exitDy=0;entryX=0;entryY=0.5;entryDx=0;entryDy=0;" edge="1" parent="1" source="KRAZHz8LZVqJgj0i6Q-k-1" target="KRAZHz8LZVqJgj0i6Q-k-4">
          <mxGeometry relative="1" as="geometry" />
        </mxCell>
        <mxCell id="KRAZHz8LZVqJgj0i6Q-k-22" style="edgeStyle=orthogonalEdgeStyle;rounded=0;orthogonalLoop=1;jettySize=auto;html=1;exitX=0.5;exitY=1;exitDx=0;exitDy=0;entryX=0;entryY=0.5;entryDx=0;entryDy=0;" edge="1" parent="1" source="KRAZHz8LZVqJgj0i6Q-k-1" target="KRAZHz8LZVqJgj0i6Q-k-5">
          <mxGeometry relative="1" as="geometry" />
        </mxCell>
        <mxCell id="KRAZHz8LZVqJgj0i6Q-k-23" style="edgeStyle=orthogonalEdgeStyle;rounded=0;orthogonalLoop=1;jettySize=auto;html=1;exitX=0.25;exitY=1;exitDx=0;exitDy=0;entryX=0;entryY=0.5;entryDx=0;entryDy=0;" edge="1" parent="1" source="KRAZHz8LZVqJgj0i6Q-k-1" target="KRAZHz8LZVqJgj0i6Q-k-3">
          <mxGeometry relative="1" as="geometry" />
        </mxCell>
        <mxCell id="KRAZHz8LZVqJgj0i6Q-k-1" value="User A" style="rounded=1;whiteSpace=wrap;html=1;" vertex="1" parent="1">
          <mxGeometry x="80" y="80" width="120" height="60" as="geometry" />
        </mxCell>
        <mxCell id="KRAZHz8LZVqJgj0i6Q-k-2" value="" style="swimlane;startSize=0;" vertex="1" parent="1">
          <mxGeometry x="280" y="80" width="160" height="320" as="geometry" />
        </mxCell>
        <mxCell id="KRAZHz8LZVqJgj0i6Q-k-3" value="Channel A-D" style="rounded=1;whiteSpace=wrap;html=1;" vertex="1" parent="KRAZHz8LZVqJgj0i6Q-k-2">
          <mxGeometry x="40" y="240" width="80" height="40" as="geometry" />
        </mxCell>
        <mxCell id="KRAZHz8LZVqJgj0i6Q-k-4" value="Channel A-B" style="rounded=1;whiteSpace=wrap;html=1;" vertex="1" parent="KRAZHz8LZVqJgj0i6Q-k-2">
          <mxGeometry x="40" y="80" width="80" height="40" as="geometry" />
        </mxCell>
        <mxCell id="KRAZHz8LZVqJgj0i6Q-k-5" value="Channel A-C" style="rounded=1;whiteSpace=wrap;html=1;" vertex="1" parent="KRAZHz8LZVqJgj0i6Q-k-2">
          <mxGeometry x="40" y="160" width="80" height="40" as="geometry" />
        </mxCell>
        <mxCell id="KRAZHz8LZVqJgj0i6Q-k-6" value="User status servers" style="text;html=1;strokeColor=none;fillColor=none;align=center;verticalAlign=middle;whiteSpace=wrap;rounded=0;" vertex="1" parent="KRAZHz8LZVqJgj0i6Q-k-2">
          <mxGeometry x="40" width="120" height="30" as="geometry" />
        </mxCell>
        <mxCell id="KRAZHz8LZVqJgj0i6Q-k-13" style="edgeStyle=orthogonalEdgeStyle;rounded=0;orthogonalLoop=1;jettySize=auto;html=1;exitX=0;exitY=0.5;exitDx=0;exitDy=0;entryX=1;entryY=0.5;entryDx=0;entryDy=0;" edge="1" parent="1" source="KRAZHz8LZVqJgj0i6Q-k-9" target="KRAZHz8LZVqJgj0i6Q-k-4">
          <mxGeometry relative="1" as="geometry" />
        </mxCell>
        <mxCell id="KRAZHz8LZVqJgj0i6Q-k-9" value="User B" style="rounded=1;whiteSpace=wrap;html=1;" vertex="1" parent="1">
          <mxGeometry x="560" y="80" width="120" height="60" as="geometry" />
        </mxCell>
        <mxCell id="KRAZHz8LZVqJgj0i6Q-k-14" style="edgeStyle=orthogonalEdgeStyle;rounded=0;orthogonalLoop=1;jettySize=auto;html=1;exitX=0;exitY=0.5;exitDx=0;exitDy=0;entryX=1;entryY=0.5;entryDx=0;entryDy=0;" edge="1" parent="1" source="KRAZHz8LZVqJgj0i6Q-k-11" target="KRAZHz8LZVqJgj0i6Q-k-5">
          <mxGeometry relative="1" as="geometry" />
        </mxCell>
        <mxCell id="KRAZHz8LZVqJgj0i6Q-k-11" value="User C" style="rounded=1;whiteSpace=wrap;html=1;" vertex="1" parent="1">
          <mxGeometry x="560" y="200" width="120" height="60" as="geometry" />
        </mxCell>
        <mxCell id="KRAZHz8LZVqJgj0i6Q-k-15" style="edgeStyle=orthogonalEdgeStyle;rounded=0;orthogonalLoop=1;jettySize=auto;html=1;exitX=0;exitY=0.5;exitDx=0;exitDy=0;" edge="1" parent="1" source="KRAZHz8LZVqJgj0i6Q-k-12" target="KRAZHz8LZVqJgj0i6Q-k-3">
          <mxGeometry relative="1" as="geometry" />
        </mxCell>
        <mxCell id="KRAZHz8LZVqJgj0i6Q-k-12" value="User D" style="rounded=1;whiteSpace=wrap;html=1;" vertex="1" parent="1">
          <mxGeometry x="560" y="320" width="120" height="60" as="geometry" />
        </mxCell>
        <mxCell id="KRAZHz8LZVqJgj0i6Q-k-16" value="Subscribe" style="text;html=1;strokeColor=none;fillColor=none;align=center;verticalAlign=middle;whiteSpace=wrap;rounded=0;" vertex="1" parent="1">
          <mxGeometry x="480" y="80" width="80" height="30" as="geometry" />
        </mxCell>
        <mxCell id="KRAZHz8LZVqJgj0i6Q-k-17" value="Subscribe" style="text;html=1;strokeColor=none;fillColor=none;align=center;verticalAlign=middle;whiteSpace=wrap;rounded=0;" vertex="1" parent="1">
          <mxGeometry x="480" y="230" width="80" height="30" as="geometry" />
        </mxCell>
        <mxCell id="KRAZHz8LZVqJgj0i6Q-k-20" value="Subscribe" style="text;html=1;strokeColor=none;fillColor=none;align=center;verticalAlign=middle;whiteSpace=wrap;rounded=0;" vertex="1" parent="1">
          <mxGeometry x="480" y="350" width="80" height="30" as="geometry" />
        </mxCell>
      </root>
    </mxGraphModel>
  </diagram>
</mxfile>
